Patient4_TMGait_0pt7_02_right_43_EMG.mot
version=1
nRows=16
nColumns=33
inDegrees=no
endheader
time	1LAddLong	2LGlutMax	3LGlutMed	4LIliopsoas	5LSemiMemb	6LBicFemLong	7LRecFem	8LVastMed	9LVastLat	10LGasMed	11LTibAnt	12lTibPost	13LPeroneusLong	14LSol	15LExtDigLong	16LFlexDigLong	17RAddLong	18RGlutMax	19RGlutMed	20RIliopsoas	21RSemiMemb	22RBicFemLong	23RRecFem	24RVastMed	25RVastLat	26RGasMed	27RTibAnt	28RTibPost	29RPeroneusLong	30RSol	31RExtDigLong	32RFlexDigLong
48.72	0.009308	0.068359	0.082855	0.009613	-0.051727	-0.016327	0.12421	-0.005035	0.013275	0.069885	0.002747	-0.001068	0.016479	0.32074	-0.096741	0.61264	-0.089569	-0.15762	0.73914	0.10864	0.059967	0.046387	0.13473	0.090027	0.003662	-0.011292	0.086517	-0.066528	0.075073	0.013275	0	-0.015259
48.721	0.015259	0.10162	0.19073	0.001678	-0.11139	-0.067139	0.093384	-0.001373	0.020599	0.069275	-0.052032	0.002441	0.066376	0.10284	-0.039063	0.19257	-0.083313	-0.1445	1.0265	0.12512	0.048828	0.051117	0.23117	0.037537	-0.001984	-0.005951	0.006256	-0.06012	0.18631	-0.023956	0.00061	-0.013428
48.722	0.013885	0.096588	0.084076	-0.003357	-0.10391	-0.12756	0.1329	-0.000305	-0.002594	0.19302	-0.041809	-0.002594	0.10498	-0.16815	-0.002747	-0.39536	-0.057831	-0.11459	0.63095	0.071411	0.041656	0.020752	0.20096	-0.00412	-0.018158	-0.007019	0.017548	-0.059662	0.14282	-0.001221	-0.001831	-0.022583
48.723	0.015717	0.12405	0.047455	0.002289	0.019836	-0.14236	0.11353	-0.007935	0.037231	0.15564	-0.021667	0.002289	0.072632	-0.34485	-0.02243	-0.26855	-0.024109	-0.15289	0.26672	0.13397	0.023346	0.032043	0.13489	-0.082397	-0.01709	-0.008698	0.005188	-0.052795	0.14236	-0.00412	0.001678	-0.0177
48.724	0.016937	0.14023	0.10956	0.012207	0.059357	-0.072632	0.10819	0.000153	0.099487	0.33798	-0.014191	0.006104	0.09613	-0.19928	-0.002441	-0.093384	0.005341	-0.16693	0.18478	0.24826	0.016022	0.023804	0.14877	-0.12543	-0.012054	-0.010376	0.008698	-0.048981	0.053864	-0.002747	-0.002747	-0.015869
48.725	0.002899	0.1506	0.081024	0.010071	0.056458	0.033417	0.088806	0.010529	0.075226	0.45868	-0.010376	-0.00824	0.051575	-0.074158	-0.037842	-0.3302	0.008545	-0.23651	0.23529	0.34286	0.000153	0.029144	0.18066	-0.13351	-0.000458	-0.011139	0.036774	-0.046387	0.13123	-0.003052	-0.003357	-0.013123
48.726	0.004272	0.14832	0.094299	-0.007019	0.023804	0.1091	0.016022	0.020447	0.09552	0.35004	0.026093	-0.009766	0.004425	0.086823	-0.07431	0.16785	-0.007782	-0.23773	0.21622	0.41428	-0.016632	0.007935	0.20371	-0.20813	-0.019073	-0.009308	0.090179	-0.028381	-0.035858	-0.032959	0.001068	-0.002441
48.727	0.014038	0.082397	0.11948	-0.00885	0.014954	0.075836	-0.043182	0.019379	0.11276	0.20264	0.016632	0	-0.008545	0.31632	-0.09079	-1.1678	0.046387	-0.24704	0.31158	0.29205	-0.019073	0	0.21805	-0.16876	-0.026245	-0.00412	0.1268	-0.027771	-0.10971	-0.078735	-0.001678	0.001678
48.728	0.011292	0.03418	0.039368	0.00946	0.00412	0.062561	0.011139	0.023651	0.045013	-0.091248	0.039215	0.015869	-0.027466	0.11948	-0.10178	0.65704	0.13367	-0.28915	0.37262	0.1294	-0.027924	0.004425	0.21454	-0.16693	-0.030365	-0.007172	0.13626	-0.010529	-0.21164	-0.10666	-0.004425	-0.007477
48.729	0.002594	-0.000916	-0.077362	0.0177	0.001678	0.092926	0.05661	0.017395	0.024109	-0.30045	0.040131	0.034637	-0.021515	-0.049133	-0.027313	0.43503	0.23056	-0.28854	0.37354	-0.081177	-0.035248	-0.004425	0.17807	-0.16571	-0.036774	-0.011139	0.15671	-0.008698	-0.35767	-0.054016	-0.002747	-0.001221
48.73	-0.002136	-0.037231	-0.1004	0.003662	-0.002747	0.097961	0.065002	0.005188	-0.03479	-0.22553	0.033569	0.033722	-0.021667	-0.14511	-0.053558	-0.2504	0.22964	-0.25681	0.42023	-0.24246	-0.043945	-0.01358	0.14801	-0.17212	-0.020905	-0.014801	0.12466	-0.02594	-0.25116	0.011902	-0.007629	-0.015717
48.731	-0.004578	-0.078583	-0.028076	0.016327	-0.015106	0.11597	0.065002	-0.001068	-0.09201	-0.061951	0.024109	0.02243	-0.000305	-0.23834	-0.10223	0.098267	0.13931	-0.21515	0.47897	-0.29541	-0.061493	-0.016174	0.099945	-0.18677	-0.002441	-0.01297	0.023804	-0.050354	-0.26215	0.008087	-0.004272	-0.014343
48.732	-0.003967	-0.10696	0.018463	0.019684	-0.022278	0.10941	0.049438	-0.011444	-0.043945	0.002747	0.00351	0.016174	0.022736	-0.59555	-0.13229	0.052643	0.032043	-0.17425	0.59479	-0.22522	-0.066223	0.002899	0.087433	-0.25589	-0.015869	-0.013428	-0.056763	-0.056763	-0.34653	0.041351	-0.000763	-0.007019
48.733	-0.014038	-0.10605	0.028229	0.008087	-0.022278	0.10498	0.062561	-0.020752	0.036469	0.14374	0.047607	0.012817	-0.004578	-0.65536	-0.080109	-0.10895	-0.063934	-0.13825	0.62759	-0.19119	-0.065002	0.03067	0.04715	-0.18417	0.024719	-0.010681	-0.03006	-0.043793	0.019073	-0.009766	-0.002136	0.000153
48.734	-0.002289	-0.097046	-0.024872	0.002441	-0.0177	0.10941	0.095367	-0.003357	0.070648	0.28625	0.005951	0.009918	-0.055847	-0.29358	0.019836	-0.10635	-0.10956	-0.16708	0.55237	-0.17883	-0.068054	0.058594	0.056458	-0.1239	0.023804	-0.016785	0.008392	-0.030365	0.49789	-0.088348	-0.000916	0.007782
48.735	-0.01297	-0.12222	-0.033875	0.011292	-0.002747	0.093384	0.10635	-0.005341	0.073242	0.006866	-0.011749	0.007935	-0.066833	0.12207	-0.019684	-0.11505	-0.11536	-0.14542	0.59052	-0.22751	-0.040894	0.10025	0.0354	-0.097351	0.046234	-0.016479	-0.010223	-0.006561	0.45731	-0.07431	-0.000916	0.013733
